<svg width="2000px" height="1137px"
 viewBox="0.00 0.00 692.65 393.85" xmlns="http://www.w3.org/2000/svg" xmlns:xlink="http://www.w3.org/1999/xlink">
<g id="graph0" class="graph" transform="scale(1.0 1.0) rotate(0) translate(4 389.85)">
<title>ContextMapGraph</title>
<polygon fill="white" stroke="transparent" points="-4,4 -4,-389.85 688.65,-389.85 688.65,4 -4,4"/>
<!-- CAJA -->
<g id="node1" class="node">
<title>CAJA</title>
<polygon fill="none" stroke="black" stroke-width="2" points="421.29,-5.47 425.1,-5.81 428.86,-6.27 432.56,-6.84 436.19,-7.53 439.73,-8.33 443.16,-9.24 446.47,-10.25 449.66,-11.38 452.7,-12.6 455.59,-13.92 458.32,-15.34 460.88,-16.85 463.25,-18.44 465.44,-20.12 467.43,-21.87 469.23,-23.7 470.82,-25.6 472.21,-27.55 473.39,-29.57 474.37,-31.63 475.14,-33.75 475.7,-35.9 476.06,-38.09 476.22,-40.3 476.19,-42.54 475.97,-44.8 475.56,-47.07 474.97,-49.34 474.21,-51.61 473.29,-53.87 472.22,-56.12 470.99,-58.35 469.63,-60.56 468.13,-62.73 466.52,-64.87 464.79,-66.96 462.95,-69 461.02,-70.99 459,-72.92 456.9,-74.79 454.74,-76.59 452.5,-78.31 450.21,-79.95 447.88,-81.51 445.49,-82.98 443.07,-84.36 440.62,-85.64 438.15,-86.82 435.65,-87.9 433.13,-88.88 430.6,-89.74 428.05,-90.5 425.5,-91.14 422.95,-91.66 420.39,-92.07 417.83,-92.37 415.27,-92.54 412.71,-92.59 410.16,-92.53 407.62,-92.34 405.08,-92.03 402.56,-91.61 400.04,-91.07 397.54,-90.41 395.06,-89.64 392.59,-88.75 390.15,-87.76 387.73,-86.65 385.33,-85.45 382.97,-84.14 380.65,-82.73 378.36,-81.23 376.12,-79.64 373.94,-77.96 371.81,-76.21 369.74,-74.37 367.75,-72.47 365.83,-70.5 364,-68.46 362.26,-66.38 360.62,-64.24 359.09,-62.07 357.67,-59.85 356.38,-57.6 355.23,-55.33 354.22,-53.05 353.35,-50.75 352.64,-48.44 352.1,-46.14 351.73,-43.84 351.53,-41.56 351.52,-39.29 351.7,-37.06 352.07,-34.85 352.63,-32.69 353.4,-30.57 354.36,-28.51 355.53,-26.5 356.89,-24.55 358.46,-22.67 360.23,-20.86 362.19,-19.13 364.34,-17.49 366.68,-15.93 369.2,-14.46 371.89,-13.09 374.74,-11.82 377.75,-10.65 380.9,-9.59 384.18,-8.63 387.59,-7.79 391.1,-7.06 394.7,-6.45 398.38,-5.95 402.13,-5.57 405.92,-5.31 409.75,-5.17 413.6,-5.15 417.45,-5.25 421.29,-5.47"/>
<text text-anchor="middle" x="413.48" y="-45.08" font-family="sans-serif" font-size="16.00">CAJA</text>
</g>
<!-- MENU -->
<g id="node2" class="node">
<title>MENU</title>
<polygon fill="none" stroke="black" stroke-width="2" points="43.55,-153.92 47.34,-152.61 51.18,-151.41 55.06,-150.33 58.97,-149.38 62.9,-148.56 66.81,-147.88 70.71,-147.33 74.58,-146.93 78.4,-146.67 82.16,-146.56 85.85,-146.6 89.46,-146.79 92.97,-147.12 96.38,-147.6 99.68,-148.23 102.85,-149 105.89,-149.91 108.8,-150.96 111.57,-152.15 114.18,-153.46 116.65,-154.9 118.96,-156.46 121.11,-158.14 123.11,-159.92 124.94,-161.8 126.61,-163.78 128.12,-165.85 129.47,-167.99 130.66,-170.21 131.7,-172.48 132.58,-174.81 133.31,-177.19 133.89,-179.61 134.32,-182.05 134.61,-184.51 134.76,-186.99 134.77,-189.47 134.65,-191.94 134.4,-194.4 134.02,-196.84 133.52,-199.25 132.9,-201.63 132.15,-203.96 131.3,-206.25 130.33,-208.48 129.25,-210.65 128.06,-212.75 126.76,-214.78 125.36,-216.73 123.85,-218.6 122.24,-220.39 120.53,-222.09 118.71,-223.69 116.8,-225.21 114.78,-226.63 112.67,-227.94 110.46,-229.16 108.15,-230.28 105.75,-231.3 103.25,-232.21 100.66,-233.02 97.98,-233.73 95.22,-234.34 92.37,-234.84 89.44,-235.24 86.43,-235.53 83.35,-235.73 80.21,-235.83 77,-235.82 73.73,-235.72 70.42,-235.53 67.07,-235.23 63.69,-234.85 60.28,-234.37 56.85,-233.79 53.43,-233.13 50,-232.38 46.6,-231.54 43.22,-230.61 39.88,-229.6 36.6,-228.51 33.38,-227.33 30.23,-226.08 27.18,-224.74 24.22,-223.33 21.39,-221.85 18.68,-220.29 16.11,-218.66 13.69,-216.96 11.44,-215.2 9.36,-213.38 7.46,-211.49 5.76,-209.55 4.27,-207.56 2.99,-205.51 1.93,-203.42 1.1,-201.29 0.5,-199.12 0.14,-196.92 0.02,-194.69 0.14,-192.44 0.51,-190.17 1.12,-187.89 1.98,-185.61 3.07,-183.33 4.41,-181.05 5.98,-178.79 7.77,-176.55 9.79,-174.34 12.02,-172.16 14.45,-170.03 17.07,-167.94 19.88,-165.91 22.85,-163.95 25.99,-162.06 29.27,-160.25 32.68,-158.52 36.2,-156.89 39.83,-155.35 43.55,-153.92"/>
<text text-anchor="middle" x="72.48" y="-189.66" font-family="sans-serif" font-size="16.00">MENU</text>
</g>
<!-- RECLAMOS -->
<g id="node3" class="node">
<title>RECLAMOS</title>
<polygon fill="none" stroke="black" stroke-width="2" points="494.39,-49.92 494.15,-47.05 494.18,-44.19 494.47,-41.35 495.02,-38.56 495.84,-35.81 496.92,-33.13 498.27,-30.51 499.87,-27.97 501.72,-25.52 503.83,-23.17 506.18,-20.93 508.76,-18.8 511.58,-16.79 514.62,-14.91 517.88,-13.15 521.34,-11.53 525,-10.06 528.85,-8.72 532.87,-7.53 537.05,-6.48 541.39,-5.58 545.86,-4.82 550.47,-4.21 555.18,-3.74 559.99,-3.41 564.89,-3.22 569.85,-3.17 574.88,-3.25 579.94,-3.45 585.03,-3.78 590.12,-4.22 595.22,-4.78 600.29,-5.44 605.33,-6.21 610.33,-7.07 615.25,-8.02 620.11,-9.06 624.86,-10.18 629.52,-11.37 634.05,-12.63 638.46,-13.95 642.71,-15.34 646.82,-16.78 650.75,-18.26 654.51,-19.8 658.08,-21.37 661.45,-22.99 664.62,-24.64 667.57,-26.32 670.3,-28.03 672.8,-29.77 675.06,-31.54 677.08,-33.33 678.86,-35.14 680.39,-36.97 681.66,-38.82 682.68,-40.69 683.44,-42.58 683.94,-44.48 684.19,-46.39 684.18,-48.32 683.91,-50.25 683.38,-52.2 682.61,-54.16 681.58,-56.12 680.31,-58.09 678.79,-60.06 677.04,-62.02 675.06,-63.99 672.85,-65.94 670.42,-67.89 667.78,-69.82 664.93,-71.73 661.89,-73.61 658.66,-75.46 655.25,-77.28 651.67,-79.06 647.93,-80.79 644.04,-82.47 640.01,-84.09 635.84,-85.64 631.56,-87.11 627.16,-88.51 622.67,-89.82 618.1,-91.03 613.44,-92.14 608.73,-93.14 603.96,-94.03 599.16,-94.79 594.33,-95.43 589.48,-95.94 584.63,-96.3 579.79,-96.52 574.97,-96.59 570.19,-96.52 565.45,-96.28 560.77,-95.89 556.16,-95.35 551.64,-94.64 547.21,-93.77 542.88,-92.75 538.68,-91.57 534.6,-90.23 530.67,-88.74 526.88,-87.11 523.26,-85.33 519.81,-83.41 516.54,-81.37 513.46,-79.2 510.58,-76.92 507.91,-74.53 505.45,-72.05 503.22,-69.47 501.22,-66.82 499.46,-64.11 497.94,-61.33 496.67,-58.52 495.65,-55.67 494.89,-52.8 494.39,-49.92"/>
<text text-anchor="middle" x="589.48" y="-45.08" font-family="sans-serif" font-size="16.00">RECLAMOS</text>
</g>
<!-- RESERVAS -->
<g id="node4" class="node">
<title>RESERVAS</title>
<polygon fill="none" stroke="black" stroke-width="2" points="301.85,-31.51 304.28,-34.12 306.47,-36.76 308.4,-39.43 310.07,-42.1 311.47,-44.78 312.59,-47.44 313.42,-50.09 313.96,-52.71 314.21,-55.29 314.16,-57.82 313.82,-60.29 313.17,-62.71 312.23,-65.05 311,-67.31 309.47,-69.49 307.65,-71.58 305.56,-73.58 303.18,-75.48 300.55,-77.27 297.65,-78.96 294.51,-80.54 291.13,-82.01 287.53,-83.37 283.72,-84.62 279.72,-85.75 275.53,-86.77 271.17,-87.68 266.67,-88.47 262.03,-89.16 257.27,-89.73 252.42,-90.2 247.48,-90.57 242.47,-90.83 237.42,-91 232.33,-91.06 227.24,-91.03 222.14,-90.91 217.06,-90.7 212.02,-90.41 207.04,-90.03 202.12,-89.56 197.28,-89.02 192.53,-88.4 187.9,-87.71 183.39,-86.94 179.01,-86.1 174.78,-85.2 170.7,-84.22 166.79,-83.18 163.05,-82.07 159.5,-80.89 156.13,-79.65 152.96,-78.35 149.98,-76.99 147.22,-75.56 144.66,-74.07 142.31,-72.52 140.18,-70.92 138.27,-69.25 136.57,-67.53 135.1,-65.74 133.84,-63.91 132.8,-62.02 131.97,-60.08 131.37,-58.09 130.97,-56.06 130.79,-53.98 130.83,-51.86 131.06,-49.71 131.51,-47.52 132.16,-45.31 133,-43.07 134.05,-40.82 135.28,-38.56 136.71,-36.29 138.32,-34.02 140.12,-31.76 142.09,-29.52 144.24,-27.3 146.56,-25.11 149.05,-22.96 151.7,-20.86 154.51,-18.81 157.48,-16.83 160.59,-14.92 163.85,-13.09 167.25,-11.35 170.79,-9.71 174.45,-8.18 178.23,-6.76 182.14,-5.45 186.15,-4.28 190.26,-3.24 194.47,-2.34 198.76,-1.59 203.14,-0.99 207.58,-0.54 212.08,-0.25 216.63,-0.12 221.22,-0.15 225.84,-0.35 230.48,-0.72 235.12,-1.25 239.75,-1.94 244.37,-2.8 248.95,-3.81 253.48,-4.98 257.96,-6.31 262.36,-7.77 266.67,-9.38 270.88,-11.13 274.97,-13 278.93,-14.99 282.75,-17.09 286.41,-19.29 289.89,-21.59 293.19,-23.97 296.29,-26.42 299.18,-28.94 301.85,-31.51"/>
<text text-anchor="middle" x="218.48" y="-45.08" font-family="sans-serif" font-size="16.00">RESERVAS</text>
</g>
<!-- USUARIOS -->
<g id="node5" class="node">
<title>USUARIOS</title>
<polygon fill="none" stroke="black" stroke-width="2" points="118.87,-305.14 123.23,-303.18 127.73,-301.32 132.35,-299.57 137.08,-297.94 141.9,-296.43 146.8,-295.05 151.75,-293.81 156.73,-292.72 161.74,-291.76 166.75,-290.96 171.75,-290.31 176.72,-289.82 181.64,-289.49 186.52,-289.32 191.32,-289.3 196.04,-289.45 200.66,-289.76 205.19,-290.22 209.59,-290.84 213.87,-291.61 218.02,-292.53 222.03,-293.59 225.89,-294.79 229.6,-296.12 233.14,-297.58 236.53,-299.16 239.75,-300.85 242.79,-302.65 245.67,-304.54 248.36,-306.52 250.88,-308.58 253.22,-310.71 255.38,-312.91 257.36,-315.16 259.16,-317.46 260.78,-319.79 262.21,-322.16 263.46,-324.54 264.52,-326.93 265.41,-329.33 266.11,-331.73 266.63,-334.11 266.96,-336.47 267.11,-338.81 267.08,-341.12 266.86,-343.39 266.46,-345.61 265.87,-347.79 265.09,-349.91 264.13,-351.98 262.98,-353.98 261.64,-355.92 260.11,-357.79 258.39,-359.59 256.48,-361.32 254.38,-362.97 252.1,-364.54 249.63,-366.03 246.97,-367.45 244.12,-368.78 241.09,-370.04 237.88,-371.21 234.5,-372.3 230.94,-373.3 227.22,-374.23 223.33,-375.07 219.29,-375.83 215.11,-376.5 210.78,-377.09 206.32,-377.6 201.74,-378.03 197.05,-378.37 192.27,-378.62 187.39,-378.8 182.45,-378.88 177.45,-378.89 172.4,-378.8 167.33,-378.63 162.25,-378.37 157.17,-378.03 152.11,-377.59 147.09,-377.07 142.14,-376.45 137.25,-375.74 132.47,-374.95 127.79,-374.05 123.25,-373.07 118.85,-371.99 114.62,-370.82 110.58,-369.56 106.73,-368.2 103.1,-366.75 99.7,-365.22 96.54,-363.59 93.65,-361.88 91.03,-360.08 88.69,-358.2 86.64,-356.24 84.89,-354.21 83.46,-352.1 82.34,-349.93 81.54,-347.7 81.06,-345.41 80.91,-343.07 81.09,-340.69 81.59,-338.27 82.41,-335.82 83.55,-333.35 85.01,-330.87 86.77,-328.38 88.83,-325.89 91.17,-323.42 93.8,-320.96 96.69,-318.54 99.84,-316.15 103.23,-313.82 106.84,-311.54 110.66,-309.32 114.68,-307.19 118.87,-305.14"/>
<text text-anchor="middle" x="180.48" y="-333.7" font-family="sans-serif" font-size="16.00">USUARIOS</text>
</g>
<!-- USUARIOS&#45;&gt;MENU -->
<g id="edge1" class="edge">
<title>USUARIOS&#45;&gt;MENU</title>
<path fill="none" stroke="black" stroke-width="2" d="M126.49,-301.61C115.74,-292.71 105.36,-282.43 97.48,-271.15 90.19,-260.7 84.92,-247.99 81.16,-235.94"/>
<text text-anchor="middle" x="131.98" y="-261.55" font-family="sans-serif" font-size="12.00">Partnership</text>
</g>
<!-- USUARIOS&#45;&gt;RESERVAS -->
<g id="edge3" class="edge">
<title>USUARIOS&#45;&gt;RESERVAS</title>
<path fill="none" stroke="black" stroke-width="2" d="M179.55,-289.37C179.54,-250.77 181.27,-194.87 189.48,-146.76 192.73,-127.72 198.55,-107.16 204.12,-89.89"/>
<text text-anchor="middle" x="264.98" y="-190.36" font-family="sans-serif" font-size="12.00"> &#160;&#160;&#160;&#160;&#160;&#160;&#160;&#160;&#160;&#160;&#160;&#160;&#160;&#160;&#160;&#160;&#160;&#160;&#160;&#160;&#160;&#160;&#160;&#160;&#160;&#160;&#160;&#160;&#160;&#160;&#160;&#160;&#160;&#160;&#160;&#160;&#160;&#160;&#160;</text>
<polygon fill="white" stroke="transparent" points="181.12,-79.89 181.12,-98.89 197.12,-98.89 197.12,-79.89 181.12,-79.89"/>
<polyline fill="none" stroke="black" points="197.12,-79.89 197.12,-98.89 "/>
<text text-anchor="start" x="184.12" y="-86.29" font-family="sans-serif" font-size="12.00">D</text>
<polygon fill="white" stroke="transparent" points="197.12,-79.89 197.12,-98.89 227.12,-98.89 227.12,-79.89 197.12,-79.89"/>
<polygon fill="none" stroke="black" points="197.12,-79.89 197.12,-98.89 227.12,-98.89 227.12,-79.89 197.12,-79.89"/>
<text text-anchor="start" x="200.12" y="-86.29" font-family="sans-serif" font-size="12.00">ACL</text>
<polygon fill="white" stroke="transparent" points="144.55,-279.37 144.55,-298.37 160.55,-298.37 160.55,-279.37 144.55,-279.37"/>
<polyline fill="none" stroke="black" points="160.55,-279.37 160.55,-298.37 "/>
<text text-anchor="start" x="147.55" y="-285.77" font-family="sans-serif" font-size="12.00">U</text>
<polygon fill="white" stroke="transparent" points="160.55,-279.37 160.55,-298.37 215.55,-298.37 215.55,-279.37 160.55,-279.37"/>
<polygon fill="none" stroke="black" points="160.55,-279.37 160.55,-298.37 215.55,-298.37 215.55,-279.37 160.55,-279.37"/>
<text text-anchor="start" x="163.55" y="-285.77" font-family="sans-serif" font-size="12.00">OHS, PL</text>
</g>
<!-- VENTAS -->
<g id="node6" class="node">
<title>VENTAS</title>
<polygon fill="none" stroke="black" stroke-width="2" points="425.03,-149.92 429.98,-149.56 434.92,-149.32 439.84,-149.21 444.71,-149.22 449.51,-149.36 454.23,-149.62 458.84,-150.01 463.34,-150.53 467.7,-151.16 471.91,-151.93 475.95,-152.81 479.81,-153.81 483.48,-154.93 486.95,-156.16 490.21,-157.5 493.25,-158.95 496.06,-160.5 498.64,-162.15 500.98,-163.89 503.08,-165.72 504.94,-167.63 506.56,-169.62 507.94,-171.68 509.08,-173.8 509.98,-175.98 510.65,-178.21 511.1,-180.49 511.31,-182.8 511.32,-185.14 511.11,-187.5 510.7,-189.88 510.09,-192.26 509.3,-194.65 508.33,-197.03 507.19,-199.39 505.89,-201.74 504.43,-204.05 502.83,-206.33 501.1,-208.57 499.24,-210.76 497.26,-212.9 495.17,-214.97 492.97,-216.98 490.67,-218.91 488.29,-220.77 485.81,-222.54 483.26,-224.23 480.63,-225.83 477.93,-227.33 475.16,-228.73 472.33,-230.02 469.44,-231.22 466.49,-232.3 463.48,-233.27 460.42,-234.13 457.31,-234.88 454.16,-235.51 450.95,-236.02 447.71,-236.41 444.41,-236.69 441.08,-236.85 437.72,-236.9 434.31,-236.83 430.88,-236.64 427.42,-236.34 423.93,-235.93 420.42,-235.4 416.9,-234.77 413.37,-234.03 409.83,-233.18 406.31,-232.24 402.79,-231.19 399.29,-230.05 395.82,-228.82 392.39,-227.5 389.01,-226.09 385.68,-224.61 382.43,-223.04 379.26,-221.4 376.18,-219.69 373.21,-217.91 370.36,-216.08 367.64,-214.18 365.07,-212.23 362.65,-210.24 360.41,-208.2 358.35,-206.12 356.48,-204.01 354.82,-201.88 353.38,-199.71 352.17,-197.53 351.21,-195.34 350.48,-193.14 350.02,-190.93 349.82,-188.73 349.89,-186.54 350.24,-184.36 350.86,-182.2 351.77,-180.06 352.95,-177.95 354.42,-175.88 356.17,-173.85 358.19,-171.86 360.49,-169.93 363.05,-168.05 365.87,-166.23 368.93,-164.48 372.24,-162.8 375.77,-161.2 379.51,-159.68 383.45,-158.25 387.57,-156.91 391.86,-155.66 396.3,-154.52 400.87,-153.47 405.56,-152.53 410.33,-151.71 415.19,-150.99 420.09,-150.4 425.03,-149.92"/>
<text text-anchor="middle" x="433.48" y="-189.66" font-family="sans-serif" font-size="16.00">VENTAS</text>
</g>
<!-- USUARIOS&#45;&gt;VENTAS -->
<g id="edge2" class="edge">
<title>USUARIOS&#45;&gt;VENTAS</title>
<path fill="none" stroke="black" stroke-width="2" d="M242.05,-301.93C285.05,-277.79 341.79,-245.94 382.31,-223.19"/>
<text text-anchor="middle" x="390.98" y="-261.55" font-family="sans-serif" font-size="12.00"> &#160;&#160;&#160;&#160;&#160;&#160;&#160;&#160;&#160;&#160;&#160;&#160;&#160;&#160;&#160;&#160;&#160;&#160;&#160;&#160;&#160;&#160;&#160;&#160;&#160;&#160;&#160;&#160;&#160;&#160;&#160;&#160;&#160;&#160;&#160;&#160;&#160;&#160;&#160;</text>
<polygon fill="white" stroke="transparent" points="363.31,-213.19 363.31,-232.19 379.31,-232.19 379.31,-213.19 363.31,-213.19"/>
<polyline fill="none" stroke="black" points="379.31,-213.19 379.31,-232.19 "/>
<text text-anchor="start" x="366.31" y="-219.59" font-family="sans-serif" font-size="12.00">D</text>
<polygon fill="white" stroke="transparent" points="379.31,-213.19 379.31,-232.19 401.31,-232.19 401.31,-213.19 379.31,-213.19"/>
<polygon fill="none" stroke="black" points="379.31,-213.19 379.31,-232.19 401.31,-232.19 401.31,-213.19 379.31,-213.19"/>
<text text-anchor="start" x="382.31" y="-219.59" font-family="sans-serif" font-size="12.00">CF</text>
<polygon fill="white" stroke="transparent" points="207.05,-291.93 207.05,-310.93 223.05,-310.93 223.05,-291.93 207.05,-291.93"/>
<polyline fill="none" stroke="black" points="223.05,-291.93 223.05,-310.93 "/>
<text text-anchor="start" x="210.05" y="-298.33" font-family="sans-serif" font-size="12.00">U</text>
<polygon fill="white" stroke="transparent" points="223.05,-291.93 223.05,-310.93 278.05,-310.93 278.05,-291.93 223.05,-291.93"/>
<polygon fill="none" stroke="black" points="223.05,-291.93 223.05,-310.93 278.05,-310.93 278.05,-291.93 223.05,-291.93"/>
<text text-anchor="start" x="226.05" y="-298.33" font-family="sans-serif" font-size="12.00">OHS, PL</text>
</g>
<!-- VENTAS&#45;&gt;CAJA -->
<g id="edge4" class="edge">
<title>VENTAS&#45;&gt;CAJA</title>
<path fill="none" stroke="black" stroke-width="2" d="M427.48,-149.68C424.95,-131.63 422.01,-110.67 419.48,-92.63"/>
<text text-anchor="middle" x="466.48" y="-119.16" font-family="sans-serif" font-size="12.00">Shared Kernel</text>
</g>
<!-- VENTAS&#45;&gt;RECLAMOS -->
<g id="edge6" class="edge">
<title>VENTAS&#45;&gt;RECLAMOS</title>
<path fill="none" stroke="black" stroke-width="2" d="M482.71,-154.27C492.74,-146.07 503.1,-137.29 512.48,-128.76 524.38,-117.94 536.75,-105.73 548.02,-94.21"/>
<text text-anchor="middle" x="582.48" y="-119.16" font-family="sans-serif" font-size="12.00">Customer/Supplier</text>
<polygon fill="white" stroke="transparent" points="541.02,-85.21 541.02,-102.21 555.02,-102.21 555.02,-85.21 541.02,-85.21"/>
<text text-anchor="start" x="543.02" y="-90.61" font-family="sans-serif" font-size="12.00">D</text>
<polygon fill="white" stroke="transparent" points="475.71,-145.27 475.71,-162.27 489.71,-162.27 489.71,-145.27 475.71,-145.27"/>
<text text-anchor="start" x="477.71" y="-150.67" font-family="sans-serif" font-size="12.00">U</text>
</g>
<!-- VENTAS&#45;&gt;RESERVAS -->
<g id="edge5" class="edge">
<title>VENTAS&#45;&gt;RESERVAS</title>
<path fill="none" stroke="black" stroke-width="2" d="M382.26,-158.49C349.84,-136.99 307.92,-109.19 274.6,-87.09"/>
<text text-anchor="middle" x="366.98" y="-119.16" font-family="sans-serif" font-size="12.00">Partnership</text>
</g>
</g>
</svg>
